<?xml version="1.0" standalone="no"?><!DOCTYPE svg PUBLIC "-//W3C//DTD SVG 1.1//EN" "http://www.w3.org/Graphics/SVG/1.1/DTD/svg11.dtd"><svg t="1609204077917" class="icon" viewBox="0 0 1024 1024" version="1.1" xmlns="http://www.w3.org/2000/svg" p-id="2192" xmlns:xlink="http://www.w3.org/1999/xlink" width="200" height="200"><defs><style type="text/css"></style></defs><path d="M216 880h592c13.2544 0 24 10.7456 24 24 0 13.2544-10.7456 24-24 24H216c-13.2544 0-24-10.7456-24-24 0-13.2544 10.7456-24 24-24zM896 96c35.3456 0 64 28.6544 64 64v528c0 35.3456-28.6544 64-64 64H128c-35.3456 0-64-28.6544-64-64V160c0-35.3456 28.6544-64 64-64h768z m0 48H128c-8.8368 0-16 7.1632-16 16v528c0 8.8368 7.1632 16 16 16h168V536c0-13.2544 10.7456-24 24-24 13.2544 0 24 10.7456 24 24v168h144V280c0-13.2544 10.7456-24 24-24 13.2544 0 24 10.7456 24 24v424h144V408c0-13.2544 10.7456-24 24-24 13.2544 0 24 10.7456 24 24v296h168c8.8368 0 16-7.1632 16-16V160c0-8.8368-7.1632-16-16-16z" fill="#707070" p-id="2193"></path></svg>