<?xml version="1.0" standalone="no"?><!DOCTYPE svg PUBLIC "-//W3C//DTD SVG 1.1//EN" "http://www.w3.org/Graphics/SVG/1.1/DTD/svg11.dtd"><svg t="1609204185579" class="icon" viewBox="0 0 1024 1024" version="1.1" xmlns="http://www.w3.org/2000/svg" p-id="5700" xmlns:xlink="http://www.w3.org/1999/xlink" width="200" height="200"><defs><style type="text/css"></style></defs><path d="M292.48 295.68A1786.88 1786.88 0 0 0 512 309.12a1786.24 1786.24 0 0 0 219.52-13.44 49.92 49.92 0 0 0 33.28-19.2 45.44 45.44 0 0 0 8.96-34.56L768 216.96a48.64 48.64 0 0 0-53.76-40.96l-46.72 4.48-12.8-94.72A26.24 26.24 0 0 0 626.56 64a1030.4 1030.4 0 0 1-229.12 0 26.24 26.24 0 0 0-29.44 21.76l-12.8 94.72-48-4.48a48 48 0 0 0-51.2 40.96l-3.2 24.96a46.08 46.08 0 0 0 8.96 35.2 49.28 49.28 0 0 0 30.72 18.56z m106.24-199.04a1056 1056 0 0 0 226.56 0L640 182.4c-41.6 0-83.2 5.12-128 5.12-41.6 0-83.2 0-128-5.12z m-113.28 128a16.64 16.64 0 0 1 16-13.44l47.36 4.48h16.64c48 3.84 96 6.4 144.64 6.4s96.64 0 144.64-6.4h16l48-4.48a16.64 16.64 0 0 1 18.56 13.44l3.2 24.96a14.08 14.08 0 0 1 0 10.88 17.92 17.92 0 0 1-12.16 6.4 1761.28 1761.28 0 0 1-430.72 0 17.28 17.28 0 0 1-12.8-10.88 14.72 14.72 0 0 1 0-10.88zM764.16 448H259.84a80 80 0 0 0-79.36 79.36v397.44a16 16 0 0 0 16 16h631.68a16 16 0 0 0 16-16V527.36A80 80 0 0 0 764.16 448z m-296.32 200.32L327.68 565.76l50.56-72.32L424.32 576z m44.16 12.8L407.04 479.36h209.92z m138.88-167.68L704 565.76l-142.72 82.56z m161.28 415.36H212.48v-384a48 48 0 0 1 48-48h88.32l-57.6 82.56a16 16 0 0 0 0 12.8 16 16 0 0 0 7.68 10.24l204.8 121.6A16.64 16.64 0 0 0 512 704a16.64 16.64 0 0 0 8.32 0l207.36-122.24a16 16 0 0 0 12.16-5.76 16 16 0 0 0 0-12.8l-57.6-82.56h83.84a48 48 0 0 1 48 48z" fill="#8a8a8a" p-id="5701"></path></svg>